<?xml version="1.0" encoding="UTF-8"?>
<svg width="100px" height="114px" viewBox="0 0 100 114" version="1.1" xmlns="http://www.w3.org/2000/svg" xmlns:xlink="http://www.w3.org/1999/xlink">
    <!-- Generator: Sketch 43.2 (39069) - http://www.bohemiancoding.com/sketch -->
    <title>Group@3x</title>
    <desc>Created with Sketch.</desc>
    <defs></defs>
    <g id="Symbols" stroke="none" stroke-width="1" fill="none" fill-rule="evenodd" opacity="0.6">
        <g id="TEst1" transform="translate(0.000000, -1.000000)" fill-rule="nonzero" fill="#000000">
            <g id="Group">
                <g id="Shape">
                    <path d="M63.6885246,13.9344262 C63.2745779,13.9358842 62.8675251,13.8284675 62.5081967,13.6229508 L50,6.37704918 L37.442623,13.6229508 C36.7105213,14.0446414 35.8090623,14.0437279 35.0778168,13.6205546 C34.3465713,13.1973812 33.8966328,12.4162381 33.8974889,11.5713742 C33.898345,10.7265104 34.3498656,9.9462807 35.0819672,9.52459016 L48.8360656,1.63934426 C49.5655374,1.21424281 50.4672495,1.21424281 51.1967213,1.63934426 L64.8852459,9.55737705 C65.8156309,10.0894766 66.2707881,11.1815848 65.9936683,12.2169353 C65.7165484,13.2522858 64.776707,13.9710115 63.704918,13.9672131"></path>
                    <path d="M50,76.2131148 C49.3594512,76.213501 48.7462451,75.9535697 48.3011027,75.492971 C47.8559603,75.0323723 47.6171029,74.4106545 47.6393443,73.7704918 L47.6393443,58 C47.6393442,57.1566189 48.0892826,56.3773026 48.8196721,55.955612 C49.5500615,55.5339214 50.4499385,55.5339214 51.1803279,55.955612 C51.9107174,56.3773026 52.3606558,57.1566189 52.3606557,58 L52.3606557,73.7704918 C52.3606557,75.074246 51.3037542,76.1311475 50,76.1311475"></path>
                    <path d="M2.95081967,49 C1.64706551,49 0.590163934,47.9430984 0.590163934,46.6393443 L0.590163934,30.8032787 C0.590163934,29.4995245 1.64706551,28.442623 2.95081967,28.442623 C4.25457384,28.442623 5.31147541,29.4995245 5.31147541,30.8032787 L5.31147541,46.6393443 C5.31147541,47.9430984 4.25457384,49 2.95081967,49"></path>
                    <path d="M97,49 C95.6962458,49 94.6393443,47.9430984 94.6393443,46.6393443 L94.6393443,30.8032787 C94.6393443,29.4995245 95.6962458,28.442623 97,28.442623 C98.3037542,28.442623 99.3606557,29.4995245 99.3606557,30.8032787 L99.3606557,46.6393443 C99.3606557,47.9430984 98.3037542,49 97,49"></path>
                    <path d="M97.0163934,87.557377 C95.7316064,87.5576559 94.6825041,86.5304099 94.6557377,85.2459016 L94.6557377,69.3442623 C94.6557377,68.0405081 95.7126393,66.9836066 97.0163934,66.9836066 L97.0163934,66.9836066 C98.3201476,66.9836066 99.3770492,68.0405081 99.3770492,69.3442623 L99.3770492,85.2459016 C99.3770492,86.5496558 98.3201476,87.6065574 97.0163934,87.6065574 L97.0163934,87.557377 Z"></path>
                    <path d="M2.95081967,87.557377 C1.66603261,87.5576559 0.616930302,86.5304099 0.590163934,85.2459016 L0.590163934,69.3442623 C0.590163934,68.0405081 1.64706551,66.9836066 2.95081967,66.9836066 C4.25457384,66.9836066 5.31147541,68.0405081 5.31147541,69.3442623 L5.31147541,85.2459016 C5.31147541,86.5496558 4.25457384,87.6065574 2.95081967,87.6065574"></path>
                    <path d="M50,23.2786885 C48.6962458,23.2786885 47.6393443,22.221787 47.6393443,20.9180328 L47.6393443,3.6557377 C47.6393442,2.81235659 48.0892826,2.03304028 48.8196721,1.6113497 C49.5500615,1.18965912 50.4499385,1.18965912 51.1803279,1.6113497 C51.9107174,2.03304028 52.3606558,2.81235659 52.3606557,3.6557377 L52.3606557,20.9180328 C52.3606557,22.221787 51.3037542,23.2786885 50,23.2786885"></path>
                    <path d="M50,114.754098 C48.6962458,114.754098 47.6393443,113.697197 47.6393443,112.393443 L47.6393443,96.5737705 C47.6393442,95.7303894 48.0892826,94.9510731 48.8196721,94.5293825 C49.5500615,94.1076919 50.4499385,94.1076919 51.1803279,94.5293825 C51.9107174,94.9510731 52.3606558,95.7303894 52.3606557,96.5737705 L52.3606557,112.409836 C52.3516462,113.707184 51.2973789,114.75413 50,114.754098"></path>
                    <path d="M50,114.754098 C49.5861514,114.754792 49.1792922,114.647427 48.8196721,114.442623 L35.0491803,106.557377 C33.9174493,105.9055 33.5284508,104.4596 34.1803279,103.327869 C34.832205,102.196138 36.278105,101.807139 37.4098361,102.459016 L50.0163934,109.754098 L62.442623,102.557377 C63.5127612,102.163476 64.7114945,102.590851 65.2910716,103.572912 C65.8706487,104.554974 65.6653673,105.810947 64.8032787,106.557377 L51.1967213,114.442623 C50.8376896,114.648863 50.430439,114.756332 50.0163934,114.754098"></path>
                    <path d="M50,60.3606557 C49.5861514,60.3613496 49.1792922,60.253984 48.8196721,60.0491803 L35.0819672,52.1147541 C33.9502362,51.462877 33.5612377,50.016977 34.2131148,48.8852459 C34.8649919,47.7535149 36.3108919,47.3645164 37.442623,48.0163934 L50,55.2622951 L62.5081967,48.0163934 C63.6272291,47.4418352 65.0002278,47.8456803 65.6299717,48.9346124 C66.2597156,50.0235446 65.9249651,51.4150037 64.8688525,52.0983607 L51.1803279,60.0327869 C50.8212962,60.2390269 50.4140456,60.3464958 50,60.3442623"></path>
                    <path d="M83.295082,41.0983607 C82.223293,41.102159 81.2834516,40.3834333 81.0063317,39.3480828 C80.7292119,38.3127323 81.1843691,37.2206241 82.1147541,36.6885246 L95.8196721,28.7704918 C96.9514032,28.1186147 98.3973032,28.5076132 99.0491803,29.6393443 C99.7010574,30.7710753 99.3120589,32.2169754 98.1803279,32.8688525 L84.4754098,40.7868852 C84.1160814,40.9924019 83.7090287,41.0998186 83.295082,41.0983607"></path>
                    <path d="M97,33.1639344 C96.5859544,33.1661679 96.1787038,33.058699 95.8196721,32.852459 L82.0983607,24.9180328 C80.9666296,24.2661557 80.5776311,22.8202556 81.2295082,21.6885246 C81.8813853,20.5567935 83.3272853,20.167795 84.4590164,20.8196721 L98.1803279,28.7540984 C99.1107128,29.2861979 99.5658701,30.3783061 99.2887502,31.4136566 C99.0116304,32.4490071 98.071789,33.1677328 97,33.1639344"></path>
                    <path d="M16.6557377,41.0983607 C16.241791,41.0998186 15.8347382,40.9924019 15.4754098,40.7868852 L1.7704918,32.7868852 C1.03839018,32.3651947 0.586869613,31.584965 0.586013517,30.7401012 C0.585157421,29.8952373 1.03509586,29.1140942 1.76634139,28.6909208 C2.49758691,28.2677475 3.39904592,28.2668341 4.13114754,28.6885246 L17.852459,36.6065574 C18.782844,37.1386569 19.2380012,38.2307651 18.9608814,39.2661156 C18.6837615,40.3014661 17.7439201,41.0201918 16.6721311,41.0163934"></path>
                    <path d="M2.95081967,33.1639344 C1.87903069,33.1677328 0.939189286,32.4490071 0.662069451,31.4136566 C0.384949616,30.3783061 0.840106851,29.2861979 1.7704918,28.7540984 L15.4754098,20.852459 C16.6071409,20.2005821 18.0530408,20.5895806 18.7049179,21.7213116 C19.3567949,22.8530426 18.9677965,24.2989425 17.8360656,24.9508197 L4.13114754,32.7868852 C3.77152746,32.9916889 3.36466826,33.0990545 2.95081967,33.0983607"></path>
                    <path d="M83.2786885,95.4754098 C82.2068995,95.4792082 81.2670581,94.7604825 80.9899383,93.725132 C80.7128185,92.6897815 81.1679757,91.5976733 82.0983607,91.0655738 L95.8360656,83.147541 C96.9677966,82.4956639 98.4136967,82.8846624 99.0655738,84.0163934 C99.7174509,85.1481245 99.3284524,86.5940246 98.1967213,87.2459016 L84.4590164,95.1639344 C84.099688,95.3694511 83.6926352,95.4768678 83.2786885,95.4754098"></path>
                    <path d="M97,87.557377 C96.5859544,87.5596106 96.1787038,87.4521416 95.8196721,87.2459016 L82.0983607,79.3278689 C80.9666296,78.6759918 80.5776312,77.2300917 81.2295082,76.0983607 C81.8813853,74.9666296 83.3272854,74.5776311 84.4590164,75.2295082 L98.1803279,83.147541 C99.1107128,83.6796405 99.5658701,84.7717487 99.2887502,85.8070992 C99.0116304,86.8424497 98.071789,87.5611754 97,87.557377"></path>
                    <path d="M16.6557377,95.4918033 C16.241791,95.4932612 15.8347382,95.3858445 15.4754098,95.1803279 L1.75409836,87.2459016 C0.622367432,86.5940245 0.233369021,85.1481245 0.885246066,84.0163935 C1.53712311,82.8846626 2.98302307,82.495664 4.1147541,83.147541 L17.8360656,91.0819672 C18.7664505,91.6140667 19.2216078,92.7061749 18.9444879,93.7415254 C18.6673681,94.7768759 17.7275267,95.4956016 16.6557377,95.4918033"></path>
                    <path d="M2.95081967,87.557377 C1.87903069,87.5611754 0.939189286,86.8424497 0.662069451,85.8070992 C0.384949616,84.7717487 0.840106851,83.6796405 1.7704918,83.147541 L15.4590164,75.2131148 C16.5907474,74.5612377 18.0366475,74.9502362 18.6885246,76.0819672 C19.3404016,77.2136983 18.9514032,78.6595983 17.8196721,79.3114754 L4.13114754,87.2295082 C3.77181915,87.4350249 3.36476637,87.5424416 2.95081967,87.5409836"></path>
                    <g opacity="0.2" transform="translate(0.000000, 1.639344)">
                        <g>
                            <path d="M2.95081967,30.5081967 C2.342559,30.5080159 1.8102126,30.0994161 1.65276963,29.511885 C1.49532666,28.924354 1.75202375,28.3043112 2.27868852,28 L49.3278689,0.836065574 C49.9691914,0.480330014 50.7772876,0.704270585 51.1440308,1.33936251 C51.510774,1.97445443 51.3008036,2.78629263 50.6721311,3.16393443 L3.62295082,30.3278689 C3.41861949,30.4459332 3.18680797,30.5081265 2.95081967,30.5081967"></path>
                        </g>
                    </g>
                    <g opacity="0.2" transform="translate(0.000000, 27.868852)">
                        <g>
                            <path d="M2.95081967,58.6721311 C2.342559,58.6719503 1.8102126,58.2633506 1.65276963,57.6758195 C1.49532666,57.0882884 1.75202375,56.4682456 2.27868852,56.1639344 L96.3278689,1.7704918 C96.9691914,1.41475624 97.7772876,1.63869681 98.1440308,2.27378874 C98.510774,2.90888066 98.3008036,3.72071886 97.6721311,4.09836066 L3.62295082,58.4918033 C3.41861949,58.6098676 3.18680797,58.672061 2.95081967,58.6721311"></path>
                        </g>
                    </g>
                    <g opacity="0.2" transform="translate(47.540984, 1.639344)">
                        <g>
                            <path d="M49.4590164,30.5081967 C49.2230281,30.5081265 48.9912166,30.4459332 48.7868852,30.3278689 L1.78688525,3.18032787 C1.15821282,2.80268607 0.948242392,1.99084788 1.31498562,1.35575595 C1.68172884,0.720664028 2.48982504,0.496723456 3.13114754,0.852459016 L50.1311475,28.0163934 C50.6578123,28.3207046 50.9145094,28.9407474 50.7570664,29.5282785 C50.5996235,30.1158096 50.0672771,30.5244093 49.4590164,30.5245902"></path>
                        </g>
                    </g>
                    <g opacity="0.2" transform="translate(0.000000, 27.868852)">
                        <g>
                            <path d="M97,58.6721311 C96.7639092,58.6728423 96.5318978,58.6105954 96.3278689,58.4918033 L2.27868852,4.09836066 C1.6500161,3.72071886 1.44004567,2.90888066 1.80678889,2.27378874 C2.17353212,1.63869681 2.98162831,1.41475624 3.62295082,1.7704918 L97.6885246,56.1639344 C98.2151894,56.4682456 98.4718865,57.0882884 98.3144435,57.6758195 C98.1570005,58.2633506 97.6246541,58.6719503 97.0163934,58.6721311"></path>
                        </g>
                    </g>
                    <g opacity="0.2" transform="translate(0.000000, 83.606557)">
                        <g>
                            <path d="M50,30.1639344 C49.7640117,30.1638642 49.5322002,30.1016709 49.3278689,29.9836066 L2.27868852,2.75409836 C1.6500161,2.37645657 1.44004567,1.56461837 1.80678889,0.929526443 C2.17353212,0.294434519 2.98162831,0.0704939482 3.62295082,0.426229508 L50.6885246,27.6557377 C51.2151894,27.9600489 51.4718865,28.5800917 51.3144435,29.1676228 C51.1570005,29.7551538 50.6246541,30.1637536 50.0163934,30.1639344"></path>
                        </g>
                    </g>
                    <g opacity="0.2" transform="translate(47.540984, 83.606557)">
                        <g>
                            <path d="M2.47540984,30.1639344 C1.86714917,30.1637536 1.33480277,29.7551538 1.17735979,29.1676228 C1.01991682,28.5800917 1.27661391,27.9600489 1.80327869,27.6557377 L48.7868852,0.426229508 C49.4282078,0.0704939482 50.2363039,0.294434519 50.6030472,0.929526443 C50.9697904,1.56461837 50.75982,2.37645657 50.1311475,2.75409836 L3.14754098,29.9836066 C2.94320965,30.1016709 2.71139813,30.1638642 2.47540984,30.1639344"></path>
                        </g>
                    </g>
                    <g opacity="0.2" transform="translate(1.639344, 27.868852)">
                        <g>
                            <path d="M1.31147541,58.6721311 C0.600589301,58.6552563 0.025815098,58.0876668 0,57.3770492 L0,2.93442623 C0,2.19201066 0.60184673,1.59016393 1.3442623,1.59016393 C2.08667786,1.59016393 2.68852459,2.19201066 2.68852459,2.93442623 L2.68852459,57.3770492 C2.68852459,58.1194647 2.08667786,58.7213115 1.3442623,58.7213115"></path>
                        </g>
                    </g>
                    <g opacity="0.2" transform="translate(95.081967, 27.868852)">
                        <g>
                            <path d="M1.93442623,58.6721311 C1.19201066,58.6721311 0.590163934,58.0702844 0.590163934,57.3278689 L0.590163934,2.93442623 C0.590163934,2.19201066 1.19201066,1.59016393 1.93442623,1.59016393 C2.67684179,1.59016393 3.27868852,2.19201066 3.27868852,2.93442623 L3.27868852,57.3770492 C3.27868852,58.1194647 2.67684179,58.7213115 1.93442623,58.7213115"></path>
                        </g>
                    </g>
                    <g opacity="0.2" transform="translate(47.540984, 1.639344)">
                        <g>
                            <path d="M2.45901639,111.967213 C1.71660083,111.967213 1.1147541,111.365366 1.1147541,110.622951 L1.1147541,2.01639344 C1.1147541,1.27397788 1.71660083,0.672131148 2.45901639,0.672131148 C3.20143196,0.672131148 3.80327869,1.27397788 3.80327869,2.01639344 L3.80327869,110.622951 C3.80327869,111.365366 3.20143196,111.967213 2.45901639,111.967213"></path>
                        </g>
                    </g>
                </g>
            </g>
        </g>
    </g>
</svg>