<?xml version="1.0" encoding="UTF-8"?>
<svg width="50px" height="56px" viewBox="0 0 50 56" version="1.1" xmlns="http://www.w3.org/2000/svg" xmlns:xlink="http://www.w3.org/1999/xlink">
    <!-- Generator: Sketch 43.2 (39069) - http://www.bohemiancoding.com/sketch -->
    <title>Shape@3x</title>
    <desc>Created with Sketch.</desc>
    <defs></defs>
    <g id="Symbols" stroke="none" stroke-width="1" fill="none" fill-rule="evenodd">
        <g id="TEst1" transform="translate(-28.000000, -30.000000)" fill-rule="nonzero" fill="#4990E2">
            <path d="M59.1111111,57.7777778 L65.5,64.1666667 C66.3333333,62.2221133 66.6111111,60 66.6111111,57.7777778 C66.6111111,55.5555556 66.0554466,53.3333333 65.5,51.3888889 L59.1111111,57.7777778 Z M73.8333333,43.0555556 L70.5,46.6666667 C72.1666667,50 73.2777778,53.8888889 73.2777778,57.7777778 C73.2777778,61.6666667 72.1666667,65.5555556 70.5,68.8888889 L73.8333333,72.2222222 C76.6111111,68.0555556 78,62.7778867 78,57.5001089 C78,52.2223312 76.6111111,47.2222222 73.8333333,43.0555556 Z M63.2777778,45.8333333 L47.4444444,30 L44.6666667,30 L44.6666667,51.1111111 L31.8888889,38.3333333 L28,42.2222222 L43.5555556,57.7777778 L28,73.3333333 L31.8888889,77.2222222 L44.6666667,64.4444444 L44.6666667,85.5555556 L47.4444444,85.5555556 L63.2777778,69.7222222 L51.3333333,57.7777778 L63.2777778,45.8333333 Z M50.2222222,40.5555556 L55.5,45.8333333 L50.2222222,51.1111111 L50.2222222,40.5555556 Z M55.5,69.7222222 L50.2222222,75 L50.2222222,64.4444444 L55.5,69.7222222 Z" id="Shape"></path>
        </g>
    </g>
</svg>